<?xml version="1.0" encoding="UTF-8" standalone="no"?>
<svg
   xmlns:dc="http://purl.org/dc/elements/1.1/"
   xmlns:cc="http://creativecommons.org/ns#"
   xmlns:rdf="http://www.w3.org/1999/02/22-rdf-syntax-ns#"
   xmlns:svg="http://www.w3.org/2000/svg"
   xmlns="http://www.w3.org/2000/svg"
   width="100%"
   height="100%"
   viewBox="0 0 64 64"
   version="1.1"
   xml:space="preserve"
   style="fill-rule:evenodd;clip-rule:evenodd;stroke-linecap:round;stroke-linejoin:round;stroke-miterlimit:2;"
   id="svg15">
  <metadata
   id="metadata21">
    <rdf:RDF>
      <cc:Work
   rdf:about="">
        <dc:format>image/svg+xml</dc:format>

        <dc:type
   rdf:resource="http://purl.org/dc/dcmitype/StillImage" />

      </cc:Work>

    </rdf:RDF>

  </metadata>

  <defs
   id="defs19" />

  
  <path
   d="M51.125,46.131c0,-8.109 -3.795,-15.751 -10.255,-20.652c-1.925,-1.46 -3.812,-2.892 -5.347,-4.056c-2.083,-1.581 -4.963,-1.581 -7.046,0c-1.535,1.164 -3.422,2.596 -5.347,4.056c-6.46,4.901 -10.255,12.543 -10.255,20.652c0,0.194 0,0.389 0,0.582c0,5.682 4.605,10.287 10.287,10.287l17.676,0c5.682,0 10.287,-4.605 10.287,-10.287l0,-0.582Z"
   style="fill:none;stroke:#222a33;stroke-width:2px;"
   id="path3" />

  <path
   d="M27,22.543c0,0 -1.4,-6.319 -2.287,-10.324c-0.188,-0.848 -0.026,-1.735 0.448,-2.462c0.474,-0.728 1.22,-1.233 2.072,-1.404c0.12,-0.024 0.237,-0.047 0.351,-0.07c0.901,-0.18 1.836,0.032 2.571,0.583c0.52,0.39 1.133,0.85 1.657,1.243c0.754,0.565 1.718,0.773 2.638,0.569c0.431,-0.096 0.932,-0.207 1.468,-0.326c1.177,-0.262 2.402,0.154 3.177,1.079c0.774,0.926 0.968,2.205 0.503,3.318c-1.481,3.544 -3.098,7.415 -3.098,7.415"
   style="fill:none;stroke:#222a33;stroke-width:2px;"
   id="path5" />

  <path
   d="M24,54c0,0 -5.099,-0.082 -7,-5"
   style="fill:none;stroke:#222a33;stroke-width:2px;"
   id="path7" />

  <path
   d="M34,36.5c-0.457,-0.607 -1.183,-1 -2,-1c-1.38,0 -2.5,1.12 -2.5,2.5c0,1.38 1.12,2.5 2.5,2.5c1.38,0 2.5,1.12 2.5,2.5c0,1.38 -1.12,2.5 -2.5,2.5c-0.817,0 -1.543,-0.393 -2,-1"
   style="fill:none;stroke:#222a33;stroke-width:2px;"
   id="path9" />

  <path
   d="M32,35.5l0,-2"
   style="fill:none;stroke:#222a33;stroke-width:2px;"
   id="path11" />

  <path
   d="M32,47.5l0,-2"
   style="fill:none;stroke:#222a33;stroke-width:2px;"
   id="path13" />

</svg>
